<?xml version="1.0" standalone="no"?>
<!DOCTYPE svg PUBLIC "-//W3C//DTD SVG 20010904//EN"
 "http://www.w3.org/TR/2001/REC-SVG-20010904/DTD/svg10.dtd">
<svg version="1.0" xmlns="http://www.w3.org/2000/svg"
 width="457.000000pt" height="457.000000pt" viewBox="0 0 457.000000 457.000000"
 preserveAspectRatio="xMidYMid meet">
<metadata>
Created by potrace 1.14, written by Peter Selinger 2001-2017
</metadata>
<g transform="translate(0.000000,457.000000) scale(0.100000,-0.100000)"
fill="#000000" stroke="none">
<path d="M2789 4378 c0 -2 -2 -10 -4 -18 -1 -8 -10 -32 -18 -53 -9 -20 -17
-41 -17 -45 -1 -4 -7 -17 -15 -29 -11 -16 -12 -23 -2 -31 16 -12 120 -60 131
-60 5 0 12 -4 15 -9 3 -5 22 -17 41 -27 54 -27 149 -87 176 -111 7 -5 24 -19
40 -30 84 -60 215 -190 298 -294 146 -183 268 -430 325 -659 17 -69 25 -112
46 -257 7 -47 7 -294 0 -345 -3 -19 -7 -53 -10 -75 -6 -50 -14 -95 -21 -117
-3 -9 -7 -27 -9 -40 -8 -39 -57 -192 -65 -203 -5 -5 -8 -12 -8 -15 -1 -3 -6
-18 -13 -35 -7 -16 -13 -32 -13 -35 -3 -14 -69 -146 -75 -150 -4 -3 -13 -20
-20 -38 -8 -17 -17 -32 -22 -32 -5 0 -9 -6 -9 -14 0 -8 -3 -16 -7 -18 -5 -2
-21 -23 -38 -48 -16 -25 -34 -50 -40 -57 -5 -6 -26 -31 -45 -55 -59 -72 -193
-201 -276 -264 -92 -70 -176 -124 -192 -124 -5 0 -12 -4 -14 -9 -4 -12 -177
-93 -266 -125 -271 -96 -562 -124 -857 -81 -18 2 -36 6 -100 19 -11 2 -40 10
-65 17 -25 7 -49 13 -55 15 -5 1 -39 12 -74 23 -61 21 -84 19 -87 -7 -1 -9
-12 -40 -27 -72 -6 -14 -11 -28 -11 -32 -1 -3 -4 -10 -8 -14 -12 -12 -9 -31 5
-32 6 0 49 -14 95 -30 45 -17 82 -28 82 -26 0 2 12 -1 28 -7 15 -6 38 -13 52
-15 26 -5 58 -11 100 -20 14 -2 45 -7 70 -10 25 -2 59 -7 75 -9 l31 -5 -2 -88
c-1 -48 -2 -89 -3 -92 0 -3 -209 -5 -463 -5 -255 1 -468 -1 -473 -2 -6 -2 -10
-56 -10 -141 l0 -137 1140 0 1140 0 0 133 c0 74 -2 137 -5 141 -3 4 -216 6
-475 6 l-470 0 0 96 -1 97 46 6 c92 12 111 15 207 40 126 32 282 87 381 136
71 35 271 154 282 169 3 3 32 26 65 51 33 25 74 59 91 75 17 17 41 39 55 51
29 25 104 108 145 159 16 21 35 44 42 51 6 7 12 15 12 19 0 3 18 28 39 55 22
28 43 59 46 70 4 11 11 20 16 20 5 0 9 6 9 14 0 8 7 22 16 30 8 9 13 16 10 16
-4 0 5 17 18 39 22 35 53 100 56 119 1 4 8 18 15 32 13 25 26 58 23 63 0 1 9
22 22 47 13 25 22 45 20 45 -1 0 3 18 9 40 6 22 10 42 10 45 0 3 4 17 10 33
13 33 20 64 35 162 4 22 9 45 11 51 7 23 19 200 18 284 -1 227 -41 448 -120
660 -94 251 -242 484 -430 676 -85 86 -178 169 -212 188 -9 5 -21 14 -28 20
-33 29 -43 36 -53 36 -5 0 -10 4 -10 9 0 5 -13 14 -30 21 -16 7 -30 16 -30 21
0 5 -7 9 -15 9 -8 0 -15 5 -15 11 0 5 -4 8 -9 4 -5 -3 -12 -1 -16 4 -4 8 -163
90 -185 96 -8 2 -44 18 -52 22 -5 2 -8 3 -9 1z"/>
<path d="M1930 4129 c-25 -4 -64 -9 -87 -12 -65 -10 -201 -45 -278 -74 -110
-41 -316 -148 -361 -188 -7 -5 -24 -19 -40 -30 -78 -56 -294 -269 -294 -290 0
-3 -5 -11 -10 -18 -42 -50 -54 -66 -67 -92 -9 -16 -22 -35 -29 -43 -8 -7 -14
-20 -14 -28 0 -8 -4 -14 -8 -14 -5 0 -15 -18 -22 -40 -7 -22 -17 -40 -22 -40
-4 0 -8 -7 -8 -15 0 -8 -4 -23 -10 -33 -9 -16 -29 -64 -36 -87 -2 -5 -10 -30
-19 -55 -9 -25 -18 -52 -20 -60 -2 -8 -10 -44 -19 -80 -15 -63 -21 -96 -31
-170 -6 -47 -6 -260 0 -335 8 -86 50 -268 86 -366 45 -123 134 -288 213 -393
72 -95 216 -244 276 -286 39 -27 53 -38 79 -60 17 -14 33 -24 84 -52 12 -7 24
-15 27 -18 8 -9 203 -102 220 -105 9 -2 33 -10 54 -19 21 -9 48 -18 60 -21 11
-2 30 -6 41 -9 155 -41 239 -51 410 -49 72 1 146 3 166 6 278 37 524 136 744
301 94 71 233 208 296 291 24 33 47 61 52 63 4 2 7 10 7 18 0 8 4 14 8 14 4 0
13 12 20 28 6 15 20 41 31 57 38 58 126 258 137 310 3 12 23 93 29 118 9 32
14 55 20 104 4 26 9 59 11 73 9 51 5 279 -6 360 -38 282 -158 561 -335 777
-99 121 -281 279 -405 351 -32 19 -178 94 -190 97 -3 1 -12 4 -20 7 -22 9 -55
19 -57 19 -2 0 -19 7 -40 15 -20 9 -45 18 -55 20 -10 2 -27 6 -38 9 -11 3 -29
7 -40 10 -52 13 -101 22 -165 31 -69 9 -290 11 -345 3z"/>
</g>
</svg>
